<svg width="22" height="18" viewBox="0 0 22 18" fill="none" xmlns="http://www.w3.org/2000/svg">
<path d="M18.6275 1.54967C17.1568 0.834436 15.686 0.357616 14.1022 0C13.8759 0.357616 13.6496 0.834435 13.5365 1.31126C11.8395 1.07285 10.1425 1.07285 8.44546 1.31126C8.33233 0.953641 8.10606 0.357616 7.87979 0C6.29592 0.238411 4.71205 0.834436 3.35444 1.54967C0.526093 6.07947 -0.265845 10.6093 0.0735566 15.0199C1.99683 16.5695 3.80697 17.404 5.61712 18C6.06965 17.404 6.52219 16.6887 6.86159 15.9735C6.18278 15.7351 5.61712 15.3775 4.93831 15.0199C5.05145 14.9007 5.27771 14.7815 5.39085 14.6623C9.01113 16.4503 12.9708 16.4503 16.5911 14.6623C16.7042 14.7815 16.9305 14.9007 17.0436 15.0199C16.478 15.3775 15.7992 15.7351 15.1204 15.9735C15.4598 16.6887 15.9123 17.404 16.3648 18C18.175 17.404 19.9851 16.4503 21.9084 15.0199C22.3609 9.89404 21.1165 5.48344 18.6275 1.54967ZM7.31412 12.2781C6.18278 12.2781 5.27771 11.2053 5.27771 9.89404C5.27771 8.58278 6.18278 7.50993 7.31412 7.50993C8.44546 7.50993 9.35053 8.58278 9.35053 9.89404C9.2374 11.2053 8.33233 12.2781 7.31412 12.2781ZM14.5547 12.2781C13.4234 12.2781 12.5183 11.2053 12.5183 9.89404C12.5183 8.58278 13.4234 7.50993 14.5547 7.50993C15.686 7.50993 16.5911 8.58278 16.5911 9.89404C16.5911 11.2053 15.686 12.2781 14.5547 12.2781Z" fill="white"/>
</svg>
